<svg width="4268" height="1313" xmlns="http://www.w3.org/2000/svg" xmlns:xlink="http://www.w3.org/1999/xlink" overflow="hidden"><defs><clipPath id="clip0"><rect x="55" y="321" width="4268" height="1313"/></clipPath><clipPath id="clip1"><rect x="55" y="321" width="1537" height="1313"/></clipPath><clipPath id="clip2"><rect x="55" y="321" width="1537" height="1313"/></clipPath><clipPath id="clip3"><rect x="55" y="321" width="1537" height="1313"/></clipPath><clipPath id="clip4"><rect x="55" y="321" width="1537" height="1313"/></clipPath></defs><g clip-path="url(#clip0)" transform="translate(-55 -321)"><path d="M314.5 988.5C314.5 699.103 542.611 464.5 824 464.5 1105.39 464.5 1333.5 699.103 1333.5 988.5 1333.5 1277.9 1105.39 1512.5 824 1512.5 542.611 1512.5 314.5 1277.9 314.5 988.5Z" stroke="#FFFFFF" stroke-width="4.58333" stroke-miterlimit="8" fill="#FFFFFF" fill-rule="evenodd"/><g clip-path="url(#clip1)"><g clip-path="url(#clip2)"><g clip-path="url(#clip3)"><g clip-path="url(#clip4)"><path d="M527.112 995.109C527.112 668.625 791.782 403.955 1118.27 403.955 1444.75 403.955 1709.42 668.625 1709.42 995.109 1709.42 1321.59 1444.75 1586.26 1118.27 1586.26 791.782 1586.26 527.112 1321.59 527.112 995.109ZM637.008 995.109C637.008 1260.9 852.473 1476.37 1118.27 1476.37 1384.06 1476.37 1599.52 1260.9 1599.52 995.109 1599.52 729.316 1384.06 513.851 1118.27 513.851 852.473 513.851 637.008 729.316 637.008 995.109Z" stroke="#FFFFFF" stroke-width="29.5577" stroke-miterlimit="8" fill-rule="evenodd" transform="matrix(1 0 0 1.00011 -287.377 -6.63402)"/><path d="M1507.3 375.863C1563.7 407.002 1576.26 492.296 1535.37 566.37 1494.47 640.446 1415.59 675.25 1359.19 644.111 1302.79 612.97 1290.22 527.676 1331.12 453.602 1372.02 379.528 1450.9 344.721 1507.3 375.863Z" stroke="#FFFFFF" stroke-width="39.4103" stroke-miterlimit="8" fill="#0070C0" fill-rule="evenodd" transform="matrix(1 0 0 1.00011 -287.377 -6.63402)"/><path d="M1507.3 375.863C1563.7 407.002 1576.26 492.296 1535.37 566.37 1494.47 640.446 1415.59 675.25 1359.19 644.111 1302.79 612.97 1290.22 527.676 1331.12 453.602 1372.02 379.528 1450.9 344.721 1507.3 375.863Z" stroke="#FFFFFF" stroke-width="39.4103" stroke-miterlimit="8" fill="#0070C0" fill-rule="evenodd" transform="matrix(1 0 0 1.00011 -287.377 -6.63402)"/><path d="M1437.71 389.208C1484.88 378.713 1531.7 408.783 1542.29 456.376 1552.88 503.966 1523.23 551.054 1476.06 561.552 1428.9 572.047 1382.08 541.977 1371.49 494.384 1360.9 446.794 1390.54 399.706 1437.71 389.208Z" stroke="#FFFFFF" stroke-width="39.4103" stroke-miterlimit="8" fill="#0070C0" fill-rule="evenodd" transform="matrix(1 0 0 1.00011 -287.377 -6.63402)"/><path d="M1437.71 389.208C1484.88 378.713 1531.7 408.783 1542.29 456.376 1552.88 503.966 1523.23 551.054 1476.06 561.552 1428.9 572.047 1382.08 541.977 1371.49 494.384 1360.9 446.794 1390.54 399.706 1437.71 389.208Z" stroke="#FFFFFF" stroke-width="39.4103" stroke-miterlimit="8" fill="#0070C0" fill-rule="evenodd" transform="matrix(1 0 0 1.00011 -287.377 -6.63402)"/><path d="M1857.22 983.934C1859.86 1048.31 1793.46 1103.3 1708.91 1106.76 1624.37 1110.23 1553.69 1060.85 1551.06 996.478 1548.42 932.104 1614.82 877.112 1699.36 873.649 1783.91 870.186 1854.58 919.562 1857.22 983.934Z" stroke="#FFFFFF" stroke-width="39.4103" stroke-miterlimit="8" fill="#C00000" fill-rule="evenodd" transform="matrix(1 0 0 1.00011 -287.377 -6.63402)"/><path d="M1857.22 983.934C1859.86 1048.31 1793.46 1103.3 1708.91 1106.76 1624.37 1110.23 1553.69 1060.85 1551.06 996.478 1548.42 932.104 1614.82 877.112 1699.36 873.649 1783.91 870.186 1854.58 919.562 1857.22 983.934Z" stroke="#FFFFFF" stroke-width="39.4103" stroke-miterlimit="8" fill="#C00000" fill-rule="evenodd" transform="matrix(1 0 0 1.00011 -287.377 -6.63402)"/><path d="M1809.71 931.37C1843.15 966.246 1841.73 1021.88 1806.54 1055.62 1771.35 1089.36 1715.71 1088.44 1682.27 1053.56 1648.83 1018.69 1650.25 963.059 1685.44 929.316 1720.63 895.573 1776.27 896.492 1809.71 931.37Z" stroke="#FFFFFF" stroke-width="39.4103" stroke-miterlimit="8" fill="#C00000" fill-rule="evenodd" transform="matrix(1 0 0 1.00011 -287.377 -6.63402)"/><path d="M1809.71 931.37C1843.15 966.246 1841.73 1021.88 1806.54 1055.62 1771.35 1089.36 1715.71 1088.44 1682.27 1053.56 1648.83 1018.69 1650.25 963.059 1685.44 929.316 1720.63 895.573 1776.27 896.492 1809.71 931.37Z" stroke="#FFFFFF" stroke-width="39.4103" stroke-miterlimit="8" fill="#C00000" fill-rule="evenodd" transform="matrix(1 0 0 1.00011 -287.377 -6.63402)"/><path d="M1522.82 1602.37C1470.34 1639.74 1388 1614.16 1338.92 1545.24 1289.84 1476.32 1292.59 1390.15 1345.07 1352.77 1397.55 1315.4 1479.88 1340.98 1528.97 1409.9 1578.05 1478.83 1575.3 1565 1522.82 1602.37Z" stroke="#FFFFFF" stroke-width="39.4103" stroke-miterlimit="8" fill="#00B050" fill-rule="evenodd" transform="matrix(1 0 0 1.00011 -287.377 -6.63402)"/><path d="M1522.82 1602.37C1470.34 1639.74 1388 1614.16 1338.92 1545.24 1289.84 1476.32 1292.59 1390.15 1345.07 1352.77 1397.55 1315.4 1479.88 1340.98 1528.97 1409.9 1578.05 1478.83 1575.3 1565 1522.82 1602.37Z" stroke="#FFFFFF" stroke-width="39.4103" stroke-miterlimit="8" fill="#00B050" fill-rule="evenodd" transform="matrix(1 0 0 1.00011 -287.377 -6.63402)"/><path d="M1540.89 1533.86C1529.95 1580.92 1482.58 1610.12 1435.09 1599.08 1387.6 1588.03 1357.98 1540.93 1368.93 1493.86 1379.87 1446.8 1427.24 1417.6 1474.73 1428.65 1522.22 1439.69 1551.84 1486.8 1540.89 1533.86Z" stroke="#FFFFFF" stroke-width="39.4103" stroke-miterlimit="8" fill="#00B050" fill-rule="evenodd" transform="matrix(1 0 0 1.00011 -287.377 -6.63402)"/><path d="M1540.89 1533.86C1529.95 1580.92 1482.58 1610.12 1435.09 1599.08 1387.6 1588.03 1357.98 1540.93 1368.93 1493.86 1379.87 1446.8 1427.24 1417.6 1474.73 1428.65 1522.22 1439.69 1551.84 1486.8 1540.89 1533.86Z" stroke="#FFFFFF" stroke-width="39.4103" stroke-miterlimit="8" fill="#00B050" fill-rule="evenodd" transform="matrix(1 0 0 1.00011 -287.377 -6.63402)"/><path d="M362.796 994.55C363.786 930.131 433.175 878.962 517.782 880.263 602.386 881.563 670.169 934.841 669.179 999.259 668.189 1063.68 598.802 1114.84 514.195 1113.54 429.589 1112.24 361.806 1058.97 362.796 994.55Z" stroke="#FFFFFF" stroke-width="39.4103" stroke-miterlimit="8" fill="#ED7D31" fill-rule="evenodd" transform="matrix(1 0 0 1.00011 -287.377 -6.63402)"/><path d="M362.796 994.55C363.786 930.131 433.175 878.962 517.782 880.263 602.386 881.563 670.169 934.841 669.179 999.259 668.189 1063.68 598.802 1114.84 514.195 1113.54 429.589 1112.24 361.806 1058.97 362.796 994.55Z" stroke="#FFFFFF" stroke-width="39.4103" stroke-miterlimit="8" fill="#ED7D31" fill-rule="evenodd" transform="matrix(1 0 0 1.00011 -287.377 -6.63402)"/><path d="M407.273 1049.7C375.846 1013 380.393 957.541 417.428 925.831 454.464 894.123 509.961 898.172 541.389 934.878 572.813 971.581 568.266 1027.04 531.231 1058.75 494.197 1090.46 438.698 1086.41 407.273 1049.7Z" stroke="#FFFFFF" stroke-width="39.4103" stroke-miterlimit="8" fill="#ED7D31" fill-rule="evenodd" transform="matrix(1 0 0 1.00011 -287.377 -6.63402)"/><path d="M407.273 1049.7C375.846 1013 380.393 957.541 417.428 925.831 454.464 894.123 509.961 898.172 541.389 934.878 572.813 971.581 568.266 1027.04 531.231 1058.75 494.197 1090.46 438.698 1086.41 407.273 1049.7Z" stroke="#FFFFFF" stroke-width="39.4103" stroke-miterlimit="8" fill="#ED7D31" fill-rule="evenodd" transform="matrix(1 0 0 1.00011 -287.377 -6.63402)"/><path d="M715.528 363.114C770.212 329.049 850.811 359.658 895.546 431.478 940.284 503.301 932.222 589.137 877.536 623.199 822.852 657.265 742.253 626.655 697.515 554.835 652.779 483.012 660.841 397.177 715.528 363.114Z" stroke="#FFFFFF" stroke-width="39.4103" stroke-miterlimit="8" fill="#FFC000" fill-rule="evenodd" transform="matrix(1 0 0 1.00011 -287.377 -6.63402)"/><path d="M715.528 363.114C770.212 329.049 850.811 359.658 895.546 431.478 940.284 503.301 932.222 589.137 877.536 623.199 822.852 657.265 742.253 626.655 697.515 554.835 652.779 483.012 660.841 397.177 715.528 363.114Z" stroke="#FFFFFF" stroke-width="39.4103" stroke-miterlimit="8" fill="#FFC000" fill-rule="evenodd" transform="matrix(1 0 0 1.00011 -287.377 -6.63402)"/><path d="M693.256 430.375C707.086 384.078 756.167 357.857 802.883 371.811 849.599 385.765 876.257 434.609 862.429 480.906 848.599 527.206 799.518 553.426 752.802 539.472 706.086 525.518 679.428 476.674 693.256 430.375Z" stroke="#FFFFFF" stroke-width="39.4103" stroke-miterlimit="8" fill="#FFC000" fill-rule="evenodd" transform="matrix(1 0 0 1.00011 -287.377 -6.63402)"/><path d="M693.256 430.375C707.086 384.078 756.167 357.857 802.883 371.811 849.599 385.765 876.257 434.609 862.429 480.906 848.599 527.206 799.518 553.426 752.802 539.472 706.086 525.518 679.428 476.674 693.256 430.375Z" stroke="#FFFFFF" stroke-width="39.4103" stroke-miterlimit="8" fill="#FFC000" fill-rule="evenodd" transform="matrix(1 0 0 1.00011 -287.377 -6.63402)"/><path d="M673.568 1583.57C629.591 1536.49 644.072 1451.5 705.912 1393.74 767.749 1335.98 853.53 1327.33 897.505 1374.42 941.479 1421.5 926.998 1506.49 865.161 1564.25 803.321 1622 717.543 1630.65 673.568 1583.57Z" stroke="#FFFFFF" stroke-width="39.4103" stroke-miterlimit="8" fill="#954ECA" fill-rule="evenodd" transform="matrix(1 0 0 1.00011 -287.377 -6.63402)"/><path d="M673.568 1583.57C629.591 1536.49 644.072 1451.5 705.912 1393.74 767.749 1335.98 853.53 1327.33 897.505 1374.42 941.479 1421.5 926.998 1506.49 865.161 1564.25 803.321 1622 717.543 1630.65 673.568 1583.57Z" stroke="#FFFFFF" stroke-width="39.4103" stroke-miterlimit="8" fill="#954ECA" fill-rule="evenodd" transform="matrix(1 0 0 1.00011 -287.377 -6.63402)"/><path d="M743.864 1592.44C695.766 1587.81 660.568 1544.71 665.245 1496.18 669.923 1447.65 712.702 1412.06 760.8 1416.7 808.898 1421.33 844.096 1464.43 839.419 1512.96 834.741 1561.49 791.961 1597.08 743.864 1592.44Z" stroke="#FFFFFF" stroke-width="39.4103" stroke-miterlimit="8" fill="#954ECA" fill-rule="evenodd" transform="matrix(1 0 0 1.00011 -287.377 -6.63402)"/><path d="M743.864 1592.44C695.766 1587.81 660.568 1544.71 665.245 1496.18 669.923 1447.65 712.702 1412.06 760.8 1416.7 808.898 1421.33 844.096 1464.43 839.419 1512.96 834.741 1561.49 791.961 1597.08 743.864 1592.44Z" stroke="#FFFFFF" stroke-width="39.4103" stroke-miterlimit="8" fill="#954ECA" fill-rule="evenodd" transform="matrix(1 0 0 1.00011 -287.377 -6.63402)"/><path d="M1127.47 769.143C1126.25 769.143 1124.41 769.143 1123.19 769.143 1062.71 769.143 1009.56 780.749 962.519 798.464L826.285 662.24C820.177 656.132 810.4 656.132 804.903 662.24 798.794 668.349 798.794 678.122 804.903 683.62L932.585 811.292C817.12 865.659 752.364 952.403 742.588 966.453L736.479 975.005 742.588 983.557C755.418 1001.88 862.939 1145.44 1052.94 1175.37 1054.77 1175.98 1057.21 1176.59 1059.04 1176.59 1059.66 1176.59 1059.66 1176.59 1060.27 1176.59 1080.43 1179.65 1101.2 1180.87 1123.19 1180.87 1125.02 1180.87 1126.25 1180.87 1128.08 1180.87 1183.06 1180.26 1232.55 1169.87 1276.53 1153.99L1426.21 1303.65C1429.26 1306.71 1432.93 1307.93 1437.21 1307.93 1441.48 1307.93 1445.15 1306.71 1448.2 1303.65 1454.31 1297.54 1454.31 1287.77 1448.2 1282.27L1306.47 1142.38C1426.21 1088.63 1494.02 997.607 1503.8 983.557L1509.91 975.005 1503.8 966.453C1489.74 946.294 1359.01 771.586 1127.47 769.143ZM773.746 975.616C781.077 965.842 793.905 951.181 811.622 933.466L1012 1136.27C879.435 1099.62 798.183 1006.77 773.746 975.616ZM1127.47 1150.93C1106.09 1150.93 1085.31 1149.71 1065.77 1147.27L834.226 912.086C847.057 901.091 861.718 889.482 877.602 878.487L1146.41 1150.32C1140.3 1150.93 1133.58 1150.93 1127.47 1150.93ZM1185.51 1146.66 903.872 861.383C919.757 851.609 937.471 842.446 955.8 834.505L1252.1 1130.78C1231.33 1137.5 1208.72 1142.99 1185.51 1146.66ZM1193.45 1029.37 1167.79 1003.72C1173.9 994.552 1177.56 984.168 1177.56 972.561 1177.56 942.629 1153.13 918.195 1123.19 918.195 1112.2 918.195 1101.2 921.86 1092.04 927.969L1070.04 905.978C1085.31 893.761 1104.25 887.649 1123.8 887.649 1172.07 887.649 1211.78 926.747 1211.78 975.616 1212.39 995.163 1205.67 1014.1 1193.45 1029.37ZM1145.19 981.113 1114.64 950.57C1117.08 949.349 1120.14 948.738 1123.19 948.738 1136.63 948.738 1147.02 959.733 1147.02 972.561 1147.02 975.616 1146.41 978.67 1145.19 981.113ZM1283.25 1119.17 1215.44 1051.36C1233.16 1029.98 1242.93 1003.72 1242.93 975.616 1242.93 910.254 1189.78 857.107 1124.41 857.107 1096.31 857.107 1070.04 866.88 1048.66 884.595L986.956 822.898C1028.5 808.849 1074.93 799.686 1127.47 800.297 1323.57 802.129 1442.09 936.521 1472.64 975.616 1451.26 1002.49 1387.11 1076.41 1283.25 1119.17Z" fill-rule="evenodd" transform="matrix(1 0 0 1.00011 -287.377 -6.63402)"/><path d="M812.551 655.407 880.09 620.115C888.938 615.492 898.965 617.206 902.485 623.946 906.007 630.685 901.689 639.897 892.842 644.52L825.305 679.812C816.457 684.435 806.43 682.721 802.908 675.982 799.385 669.243 803.703 660.031 812.551 655.407Z" stroke="#000000" stroke-width="3.28418" stroke-miterlimit="8" fill-rule="evenodd" transform="matrix(1 0 0 1.00011 -287.377 -6.63402)"/><path d="M1352.21 1313.09 1423.65 1286.56C1433.01 1283.08 1442.74 1286.05 1445.39 1293.18 1448.04 1300.3 1442.6 1308.9 1433.24 1312.38L1361.8 1338.9C1352.44 1342.37 1342.71 1339.41 1340.06 1332.28 1337.41 1325.16 1342.86 1316.56 1352.21 1313.09Z" stroke="#000000" stroke-width="3.28418" stroke-miterlimit="8" fill-rule="evenodd" transform="matrix(1 0 0 1.00011 -287.377 -6.63402)"/></g></g></g></g><text font-family="Aharoni,Aharoni_MSFontService,sans-serif" font-weight="700" font-size="128" transform="matrix(1 0 0 1 643.569 707)">EAVIP</text><path d="M2702.77 845.104 2647.41 1006.74 2757.4 1006.74ZM3927.57 794.569 3927.57 920.907 3971.55 920.907C4000.13 920.907 4019.76 914.697 4030.45 902.276 4040.14 891.094 4044.99 875.938 4044.99 856.809 4044.99 837.924 4039.46 822.83 4028.4 811.526 4017.34 800.221 3998.52 794.569 3971.92 794.569ZM3795.65 688.297 4005.6 688.297C4065.3 688.297 4110.63 705.742 4141.6 740.632 4168.35 770.575 4181.73 808.806 4181.73 855.323 4181.73 901.101 4170.95 938.962 4149.4 968.905 4121.41 1007.75 4074.96 1027.18 4010.06 1027.18L3927.57 1027.18 3927.57 1195.51 3795.65 1195.51ZM3557.65 688.297 3689.57 688.297 3689.57 1195.51 3557.65 1195.51ZM2972.52 688.297 3115.95 688.297 3238.2 996.71 3361.56 688.297 3504.62 688.297 3288.36 1195.51 3185.81 1195.51ZM2631.8 688.297 2775.6 688.297 2966.6 1195.51 2825.77 1195.51 2793.07 1107.07 2610.99 1107.07 2576.06 1195.51 2436.72 1195.51ZM2112.65 688.297 2401.37 688.297 2401.37 798.285 2244.57 798.285 2244.57 884.864 2392.83 884.864 2392.83 994.852 2244.57 994.852 2244.57 1085.52 2401.37 1085.52 2401.37 1195.51 2112.65 1195.51ZM1847.84 676.035C1902.59 676.035 1956.22 689.783 2008.73 717.28L1955.97 819.837C1927.16 797.294 1898.1 786.023 1868.79 786.023 1854.64 786.023 1841.97 789.628 1830.79 796.839 1818.13 805.045 1811.8 815.986 1811.8 829.661 1811.8 843.084 1820.11 854.644 1836.73 864.34 1844.18 868.818 1866.51 876.526 1903.73 887.465 1950.39 901.105 1983.64 920.451 2003.49 945.501 2020.61 966.829 2029.17 994.233 2029.17 1027.71 2029.17 1113.52 1991.52 1169.45 1916.21 1195.49 1889.95 1204.67 1861.71 1209.25 1831.49 1209.25 1768.07 1209.25 1709.24 1190.06 1654.99 1151.66L1711.47 1045.39C1751.19 1081.31 1790.03 1099.27 1828.01 1099.27 1845.14 1099.27 1859.66 1095.26 1871.58 1087.25 1885.48 1078.25 1892.43 1065.49 1892.43 1048.97 1892.43 1033.96 1884.74 1021.44 1869.35 1011.43 1857.94 1003.92 1838.7 996.292 1811.66 988.535 1778.9 978.886 1758.31 972.205 1749.87 968.493 1736.47 962.803 1725.05 956.122 1715.63 948.451 1688.58 926.183 1675.05 892.533 1675.05 847.502 1675.05 800.49 1689.05 761.52 1717.04 730.593 1749.74 694.221 1793.34 676.035 1847.84 676.035Z" stroke="#000000" stroke-width="3" stroke-linejoin="round" stroke-miterlimit="10" fill-rule="evenodd"/><text fill="#000000" fill-opacity="0" font-family="Arial,Arial_MSFontService,sans-serif" font-size="533.22" x="1654.99" y="1142.6">SEAVIP</text></g></svg>